<svg width="62" height="60" viewBox="0 0 62 60" fill="none" xmlns="http://www.w3.org/2000/svg">
<path d="M54.25 30V47.5C54.25 48.8261 53.7057 50.0979 52.7367 51.0355C51.7678 51.9732 50.4536 52.5 49.0833 52.5H12.9167C11.5464 52.5 10.2322 51.9732 9.26328 51.0355C8.29434 50.0979 7.75 48.8261 7.75 47.5V12.5C7.75 11.1739 8.29434 9.90215 9.26328 8.96447C10.2322 8.02678 11.5464 7.5 12.9167 7.5H31M41.3333 12.5H56.8333M49.0833 5V20" stroke="#9D9D9D" stroke-width="2" stroke-linecap="round" stroke-linejoin="round"/>
<path d="M23.25 27.5C26.1035 27.5 28.4167 25.2614 28.4167 22.5C28.4167 19.7386 26.1035 17.5 23.25 17.5C20.3965 17.5 18.0833 19.7386 18.0833 22.5C18.0833 25.2614 20.3965 27.5 23.25 27.5Z" stroke="#9D9D9D" stroke-width="2" stroke-linecap="round" stroke-linejoin="round"/>
<path d="M54.25 37.4992L46.2778 29.7842C45.3089 28.8469 43.995 28.3203 42.625 28.3203C41.255 28.3203 39.9411 28.8469 38.9722 29.7842L15.5 52.4992" stroke="#9D9D9D" stroke-width="2" stroke-linecap="round" stroke-linejoin="round"/>
</svg>
