<?xml version="1.0" standalone="no"?>
<!DOCTYPE svg PUBLIC "-//W3C//DTD SVG 20010904//EN"
 "http://www.w3.org/TR/2001/REC-SVG-20010904/DTD/svg10.dtd">
<svg version="1.0" xmlns="http://www.w3.org/2000/svg"
 width="477.000000pt" height="477.000000pt" viewBox="0 0 477.000000 477.000000"
 preserveAspectRatio="xMidYMid meet">
<metadata>
Created by potrace 1.14, written by Peter Selinger 2001-2017
</metadata>
<g transform="translate(0.000000,477.000000) scale(0.100000,-0.100000)"
fill="#000000" stroke="none">
<path d="M1190 4438 c-46 -84 -135 -241 -198 -348 -63 -107 -184 -316 -269
-465 -217 -379 -303 -527 -408 -705 -149 -251 -295 -510 -295 -522 0 -19 197
-370 340 -603 20 -33 131 -226 247 -430 116 -203 244 -426 285 -495 42 -69
142 -243 222 -385 81 -143 154 -267 162 -275 13 -13 164 -15 1272 -11 719 2
1262 7 1268 12 13 11 83 129 389 659 417 724 545 950 545 967 0 10 -27 13
-102 13 -57 0 -108 -4 -114 -8 -6 -4 -22 -27 -34 -52 -12 -25 -75 -135 -140
-245 -64 -110 -168 -290 -230 -400 -62 -110 -165 -288 -228 -395 -64 -107
-134 -229 -156 -270 l-41 -75 -1150 -2 c-633 -2 -1155 1 -1161 5 -5 4 -22 27
-36 52 -14 25 -67 117 -118 205 -50 88 -157 274 -237 414 -80 140 -170 295
-200 345 -31 50 -81 136 -111 191 -69 126 -288 502 -357 615 -29 47 -62 104
-74 128 -24 48 -26 43 44 151 46 71 68 109 302 516 85 149 217 376 293 505 75
129 211 364 300 522 90 158 174 300 186 315 18 23 29 27 70 27 27 0 544 0
1150 -2 l1100 -2 23 -47 c13 -27 74 -133 136 -238 62 -104 147 -253 190 -330
86 -153 255 -446 345 -595 31 -52 76 -127 98 -166 l41 -71 100 -1 c59 -1 102
2 106 8 9 15 -82 180 -365 660 -54 91 -182 314 -285 495 -192 337 -269 464
-289 477 -6 4 -579 8 -1272 8 l-1261 0 -83 -152z"/>
<path d="M1572 3482 c5 -16 256 -377 343 -492 23 -30 102 -140 175 -245 73
-104 164 -232 202 -283 41 -54 68 -99 64 -107 -8 -21 -146 -217 -331 -470 -88
-121 -228 -314 -310 -430 -82 -115 -164 -226 -181 -245 l-32 -35 171 3 172 3
22 27 c12 15 48 63 79 107 176 246 349 486 438 605 56 74 112 152 126 173 14
20 30 37 35 37 6 -1 41 -44 79 -98 39 -53 145 -198 236 -322 92 -124 211 -287
265 -363 53 -76 107 -144 118 -152 17 -12 57 -15 179 -15 87 0 158 3 158 6 0
4 -12 21 -27 39 -16 17 -127 169 -247 336 -415 575 -530 734 -553 762 -13 16
-23 32 -23 37 0 4 19 32 43 62 24 29 89 116 144 193 55 77 171 239 258 360
329 456 365 508 365 517 0 4 -74 8 -164 8 l-164 0 -65 -97 c-36 -54 -103 -150
-149 -214 -45 -64 -162 -227 -258 -362 -96 -135 -179 -244 -185 -243 -12 3
-432 573 -579 786 -97 141 -75 130 -254 130 -142 0 -154 -1 -150 -18z"/>
</g>
</svg>
